<svg width="42" height="42" viewBox="0 0 42 42" fill="none" xmlns="http://www.w3.org/2000/svg">
<path d="M39.7264 12.9531C39.6354 12.1449 39.1476 11.5593 38.5772 11.5593H36.6177V8.30308H40.8343C41.4791 8.30308 42 7.56515 42 6.65154C42 5.73792 41.4791 5 40.8343 5H1.16575C0.520866 5 0 5.73792 0 6.65154C0 7.56515 0.520866 8.30308 1.16575 8.30308H5.38228V11.5593H3.4311C2.85236 11.5593 2.36457 12.1567 2.28189 12.9531L0.0165354 33.3924C-0.0330709 33.8726 0.124016 35.3016 1.16575 35.3016H3.14173C3.14173 35.3133 3.14173 35.3367 3.14173 35.3485C3.14173 36.2621 3.6626 37 4.30748 37H9.38386C10.0287 37 10.5496 36.2621 10.5496 35.3485C10.5496 35.3367 10.5496 35.3133 10.5496 35.3016H31.4504C31.4504 35.3133 31.4504 35.3367 31.4504 35.3485C31.4504 36.2621 31.9713 37 32.6161 37H37.6925C38.3374 37 38.8583 36.2621 38.8583 35.3485C38.8583 35.3367 38.8583 35.3133 38.8583 35.3016C38.8583 35.3016 40.8425 35.3016 40.8508 35.3016C42.0827 35.3016 42 33.3221 41.9669 33.1581L39.7264 12.9531ZM7.72205 8.29136H34.2862V11.5476H7.72205V8.29136ZM2.52992 31.9985L4.42323 14.8624H37.5768L39.4701 31.9985H2.52992Z" fill="black"/>
<path d="M19.1045 19.9831C19.0149 19.4209 18.4866 18.9992 17.8687 18.9992H7.57911C6.95225 18.9992 6.42389 19.4209 6.33434 19.9831L5.46568 25.076C5.41195 25.415 5.53732 26.4236 6.71046 26.4236C6.71046 26.4236 18.7284 26.4236 18.7373 26.4236C19.9104 26.4236 20 25.9027 20 25.2579C20 25.1421 19.1045 19.9831 19.1045 19.9831ZM8.19702 24.1004L8.66269 21.339H16.7851L17.2507 24.1004H8.19702Z" fill="black"/>
<path d="M25.2413 18.9992H24.4228C23.7779 18.9992 23.2571 19.5201 23.2571 20.165C23.2571 20.8098 23.7779 21.3307 24.4228 21.3307H25.2413C25.8862 21.3307 26.4071 20.8098 26.4071 20.165C26.4071 19.5201 25.8779 18.9992 25.2413 18.9992Z" fill="black"/>
<path d="M30.0118 18.9992H29.1933C28.5485 18.9992 28.0276 19.5201 28.0276 20.165C28.0276 20.8098 28.5485 21.3307 29.1933 21.3307H30.0118C30.6567 21.3307 31.1776 20.8098 31.1776 20.165C31.1776 19.5201 30.6567 18.9992 30.0118 18.9992Z" fill="black"/>
<path d="M34.7905 18.9992H33.972C33.3271 18.9992 32.8063 19.5201 32.8063 20.165C32.8063 20.8098 33.3271 21.3307 33.972 21.3307H34.7905C35.4354 21.3307 35.9563 20.8098 35.9563 20.165C35.9563 19.5201 35.4354 18.9992 34.7905 18.9992Z" fill="black"/>
<path d="M25.2413 24.1004H24.4228C23.7779 24.1004 23.2571 24.6213 23.2571 25.2662C23.2571 25.911 23.7779 26.4319 24.4228 26.4319H25.2413C25.8862 26.4319 26.4071 25.911 26.4071 25.2662C26.4071 24.6213 25.8779 24.1004 25.2413 24.1004Z" fill="black"/>
<path d="M30.0118 24.1004H29.1933C28.5485 24.1004 28.0276 24.6213 28.0276 25.2662C28.0276 25.911 28.5485 26.4319 29.1933 26.4319H30.0118C30.6567 26.4319 31.1776 25.911 31.1776 25.2662C31.1776 24.6213 30.6567 24.1004 30.0118 24.1004Z" fill="black"/>
<path d="M34.7905 24.1004H33.972C33.3271 24.1004 32.8063 24.6213 32.8063 25.2662C32.8063 25.911 33.3271 26.4319 33.972 26.4319H34.7905C35.4354 26.4319 35.9563 25.911 35.9563 25.2662C35.9563 24.6213 35.4354 24.1004 34.7905 24.1004Z" fill="black"/>
</svg>
