<svg width="94" height="72" viewBox="0 0 94 72" fill="none" xmlns="http://www.w3.org/2000/svg">
<g clip-path="url(#clip0_76_66)">
<path d="M67.116 24.2398L61.816 18.5557C61.1252 17.8148 60.0087 17.8148 59.318 18.5557L41.1337 38.058L35.3162 31.8188C34.6253 31.0779 33.5088 31.0779 32.8181 31.8188L27.5181 37.5029C26.8273 38.2436 26.8273 39.4413 27.5181 40.182L39.8847 53.4449C40.2292 53.8163 40.6815 54 41.1337 54C41.5861 54 42.0382 53.8143 42.3827 53.4449L67.116 26.9189C67.8069 26.1782 67.8069 24.9808 67.116 24.2398ZM41.1337 49.4262L31.2652 38.8425L34.0671 35.8374L39.8847 42.0766C40.5755 42.8176 41.6921 42.8176 42.3827 42.0766L60.567 22.5743L63.369 25.5794L41.1337 49.4262Z" fill="black"/>
<path d="M93.6355 46.1559L86.6389 36.0002L93.6355 25.8445C94.0257 25.2799 94.1087 24.4936 93.8518 23.8286C93.5933 23.1636 93.0403 22.7373 92.4325 22.7373H71.8577L70.4837 11.102C70.3741 10.1679 69.713 9.47444 68.9328 9.47444H56.9667C55.1213 7.61378 48.0024 0.440464 48.0024 0.440464C47.4211 -0.146821 46.5783 -0.146821 45.997 0.440464L37.0327 9.47444H25.0666C24.2864 9.47444 23.6269 10.1679 23.5157 11.1002L22.1417 22.7375H1.56746C0.959597 22.7375 0.406623 23.1639 0.148128 23.8288C-0.110367 24.4958 -0.0257318 25.2821 0.364397 25.8447L7.36102 36.0004L0.364397 46.1561C-0.0257318 46.7208 -0.108715 47.507 0.148128 48.172C0.406623 48.839 0.959597 49.2633 1.56746 49.2633H22.142C22.5603 52.797 23.5175 60.9006 23.5175 60.9006C23.6271 61.8348 24.2882 62.5264 25.0668 62.5264H37.0329L45.9972 71.5604C46.2886 71.8541 46.6442 72 46.9998 72C47.3554 72 47.7127 71.8541 48.0024 71.5604L56.9651 62.5264C59.3997 62.5264 68.9357 62.5339 68.9326 62.5264C69.7128 62.5264 70.3723 61.833 70.4835 60.9006C70.4835 60.9006 71.4408 52.797 71.859 49.2633H92.4321C93.04 49.2633 93.593 48.837 93.8515 48.172C94.1103 47.5048 94.0257 46.7185 93.6355 46.1559ZM4.91229 45.4738L10.604 37.213C11.0881 36.51 11.0881 35.4888 10.604 34.7877L4.91229 26.5266H20.1556L14.4639 34.7874C13.9798 35.4904 13.9798 36.5115 14.4639 37.2127L20.1556 45.4736H4.91229V45.4738ZM69.2979 46.1539C69.2212 46.2656 69.1538 46.3888 69.1006 46.5196C68.991 46.7849 68.9862 46.7963 67.5762 58.7367C56.0317 58.7367 56.0207 58.7442 55.6996 58.9376C55.5914 59.004 55.4897 59.0835 55.3972 59.1763L47 67.6381L38.6027 59.1763C38.3224 58.8921 37.9666 58.7367 37.6002 58.7367H26.4254C25.0154 46.7963 25.0106 46.7849 24.901 46.5196C24.8461 46.3888 24.7804 46.2658 24.7037 46.1539L17.7071 36.0002L24.7037 25.8445C24.8902 25.5736 25.0108 25.2477 25.0514 24.8991L26.4254 13.2637H37.6002C37.9668 13.2637 38.3208 13.1083 38.6027 12.8241L47 4.36229C55.5351 12.9642 55.5413 12.968 55.6996 13.0648C55.9173 13.1955 56.1571 13.2637 56.3998 13.2637H67.5746L68.9485 24.9011C68.9893 25.2497 69.1099 25.5756 69.2963 25.8465L76.2929 36.0002L69.2979 46.1539ZM73.8442 45.4738L79.5358 37.213C80.02 36.51 80.02 35.4888 79.5358 34.7877L73.8442 26.5268H89.0875L83.3958 34.7877C82.9117 35.4906 82.9117 36.5118 83.3958 37.213L89.0875 45.4738H73.8442Z" fill="black"/>
</g>
<defs>
<clipPath id="clip0_76_66">
<rect width="94" height="72" fill="white"/>
</clipPath>
</defs>
</svg>
