<svg width="72" height="72" viewBox="0 0 72 72" fill="none" xmlns="http://www.w3.org/2000/svg">
<path d="M44.5 36C44.5 40.6945 40.6945 44.5 36 44.5C31.3054 44.5 27.5 40.6945 27.5 36C27.5 31.3054 31.3054 27.5 36 27.5C40.6945 27.5 44.5 31.3054 44.5 36Z" stroke="white" stroke-width="3" stroke-linecap="round" stroke-linejoin="round"/>
<path d="M38.563 10.6701C37.9799 10.5 37.32 10.5 36 10.5C34.6799 10.5 34.0201 10.5 33.437 10.6701C32.5836 10.9192 31.8296 11.4296 31.2814 12.1295C30.9068 12.6077 30.6617 13.2205 30.1716 14.446C29.4669 16.2078 27.5111 17.115 25.7109 16.5152L24.0937 15.9763C22.9465 15.5939 22.3729 15.4027 21.8106 15.3699C20.9844 15.3218 20.1622 15.5159 19.4449 15.9284C18.9565 16.2092 18.529 16.6367 17.6739 17.4918C16.7651 18.4006 16.3107 18.855 16.0221 19.3737C15.5979 20.1357 15.4185 21.0098 15.5082 21.8773C15.5692 22.4677 15.8078 23.0644 16.2852 24.2577C17.0327 26.1265 16.3135 28.2615 14.5877 29.2973L13.8014 29.7691C12.5975 30.4914 11.9956 30.8527 11.5584 31.3499C11.1714 31.7899 10.8797 32.3053 10.7014 32.8635C10.5 33.4942 10.5 34.2031 10.5 35.6212C10.5 37.3002 10.5 38.1394 10.7681 38.8583C11.005 39.4932 11.3903 40.0621 11.8918 40.518C12.4595 41.0337 13.2312 41.3425 14.7745 41.9599C16.3518 42.5906 17.1639 44.3416 16.6267 45.9532L16.0171 47.7821C15.5949 49.0486 15.3837 49.6822 15.3645 50.3044C15.3415 51.0526 15.5164 51.7936 15.8716 52.4523C16.1671 53.0006 16.6392 53.4726 17.5833 54.4167C18.5275 55.3607 18.9996 55.8328 19.5475 56.1283C20.2064 56.4836 20.9474 56.6587 21.6956 56.6354C22.3179 56.6162 22.9513 56.4051 24.218 55.9829L25.7111 55.4851C27.5111 54.8853 29.4669 55.7922 30.1716 57.554C30.6617 58.7794 30.9068 59.3923 31.2814 59.8705C31.8296 60.5704 32.5836 61.081 33.437 61.33C34.0201 61.5 34.6799 61.5 36 61.5C37.32 61.5 37.9799 61.5 38.563 61.33C39.4164 61.081 40.1704 60.5704 40.7186 59.8705C41.0932 59.3923 41.3383 58.7794 41.8284 57.554C42.5331 55.7922 44.4889 54.8853 46.2887 55.4857L47.7807 55.9832C49.0475 56.4054 49.681 56.6165 50.3032 56.6357C51.0515 56.6587 51.7924 56.4839 52.4512 56.1286C52.9991 55.833 53.4715 55.361 54.4155 54.4169C55.3596 53.4729 55.8316 53.0006 56.1272 52.4526C56.4825 51.7939 56.6573 51.0526 56.6343 50.3046C56.615 49.6824 56.404 49.0489 55.9818 47.7821L55.3726 45.9546C54.8351 44.3425 55.6475 42.5909 57.2254 41.9599C58.7687 41.3425 59.5405 41.0337 60.1083 40.518C60.6098 40.0621 60.9951 39.4932 61.232 38.8583C61.5 38.1394 61.5 37.3002 61.5 35.6212C61.5 34.2031 61.5 33.4942 61.2985 32.8635C61.1203 32.3053 60.8285 31.7899 60.4417 31.3499C60.0043 30.8527 59.4025 30.4914 58.1986 29.7691L57.4112 29.2968C55.6854 28.2612 54.966 26.1262 55.7138 24.2575C56.1909 23.0642 56.4297 22.4675 56.4907 21.8771C56.5802 21.0096 56.4008 20.1355 55.9767 19.3735C55.688 18.8548 55.2338 18.4004 54.3249 17.4916C53.4698 16.6365 53.0422 16.209 52.554 15.9282C51.8366 15.5157 51.0144 15.3216 50.1882 15.3697C49.6258 15.4025 49.0523 15.5937 47.9051 15.9761L46.289 16.5148C44.4889 17.1148 42.5331 16.2078 41.8284 14.446C41.3383 13.2205 41.0932 12.6077 40.7186 12.1295C40.1704 11.4296 39.4164 10.9192 38.563 10.6701Z" stroke="white" stroke-width="4" stroke-linecap="round" stroke-linejoin="round"/>
</svg>
