<svg width="88" height="81" viewBox="0 0 88 81" fill="none" xmlns="http://www.w3.org/2000/svg">
<path d="M14.6666 20.25V40.5C14.6666 40.5 14.6666 50.625 40.3333 50.625C66 50.625 66 40.5 66 40.5V20.25" stroke="white" stroke-width="6" stroke-linecap="round" stroke-linejoin="round"/>
<path d="M40.3333 10.125C66 10.125 66 20.25 66 20.25C66 20.25 66 30.375 40.3333 30.375C14.6666 30.375 14.6666 20.25 14.6666 20.25C14.6666 20.25 14.6666 10.125 40.3333 10.125Z" stroke="white" stroke-width="6" stroke-linecap="round" stroke-linejoin="round"/>
<path d="M40.3333 70.875C14.6666 70.875 14.6666 60.75 14.6666 60.75V40.5" stroke="white" stroke-width="6" stroke-linecap="round" stroke-linejoin="round"/>
<path d="M65.75 66C65.75 68.0711 64.0711 69.75 62 69.75C59.9289 69.75 58.25 68.0711 58.25 66C58.25 63.9289 59.9289 62.25 62 62.25C64.0711 62.25 65.75 63.9289 65.75 66Z" stroke="white" stroke-width="3" stroke-linecap="round" stroke-linejoin="round"/>
<path d="M63.1308 54.8251C62.8735 54.75 62.5824 54.75 62 54.75C61.4176 54.75 61.1265 54.75 60.8692 54.8251C60.4927 54.9349 60.1601 55.1601 59.9183 55.4689C59.753 55.6798 59.6449 55.9502 59.4286 56.4909C59.1177 57.2682 58.2549 57.6684 57.4607 57.4038L56.7472 57.166C56.2411 56.9973 55.9881 56.913 55.74 56.8985C55.3755 56.8773 55.0128 56.9629 54.6963 57.1449C54.4808 57.2688 54.2922 57.4574 53.915 57.8346C53.514 58.2356 53.3135 58.436 53.1862 58.6649C52.9991 59.001 52.9199 59.3867 52.9595 59.7694C52.9864 60.0299 53.0917 60.2931 53.3023 60.8196C53.6321 61.644 53.3148 62.586 52.5534 63.0429L52.2065 63.2511C51.6754 63.5697 51.4098 63.7291 51.2169 63.9485C51.0462 64.1426 50.9175 64.37 50.8389 64.6162C50.75 64.8945 50.75 65.2072 50.75 65.8329C50.75 66.5736 50.75 66.9439 50.8683 67.261C50.9728 67.5411 51.1428 67.7921 51.3641 67.9932C51.6145 68.2207 51.9549 68.357 52.6358 68.6294C53.3317 68.9076 53.69 69.6801 53.453 70.3911L53.184 71.198C52.9977 71.7567 52.9046 72.0362 52.8961 72.3107C52.8859 72.6409 52.9631 72.9677 53.1198 73.2584C53.2502 73.5002 53.4585 73.7085 53.875 74.125C54.2915 74.5415 54.4998 74.7497 54.7416 74.8801C55.0323 75.0369 55.3592 75.1141 55.6892 75.1039C55.9638 75.0954 56.2432 75.0022 56.802 74.816L57.4608 74.5964C58.2549 74.3317 59.1178 74.7319 59.4286 75.5091C59.6449 76.0497 59.753 76.3201 59.9183 76.5311C60.1601 76.8399 60.4927 77.0651 60.8692 77.175C61.1265 77.25 61.4176 77.25 62 77.25C62.5824 77.25 62.8735 77.25 63.1308 77.175C63.5073 77.0651 63.8399 76.8399 64.0817 76.5311C64.247 76.3201 64.3551 76.0497 64.5714 75.5091C64.8823 74.7319 65.7451 74.3318 66.5391 74.5966L67.1974 74.8161C67.7562 75.0024 68.0358 75.0955 68.3103 75.104C68.6404 75.1141 68.9672 75.037 69.2579 74.8803C69.4996 74.7499 69.708 74.5416 70.1245 74.1251C70.541 73.7086 70.7493 73.5003 70.8796 73.2585C71.0364 72.9679 71.1135 72.6409 71.1034 72.3109C71.0949 72.0364 71.0018 71.7569 70.8155 71.198L70.5468 70.3918C70.3096 69.6805 70.668 68.9078 71.3641 68.6294C72.045 68.357 72.3855 68.2207 72.636 67.9932C72.8573 67.7921 73.0272 67.5411 73.1317 67.261C73.25 66.9439 73.25 66.5736 73.25 65.8329C73.25 65.2072 73.25 64.8945 73.1611 64.6162C73.0825 64.37 72.9537 64.1426 72.7831 63.9485C72.5901 63.7291 72.3246 63.5697 71.7935 63.2511L71.4461 63.0427C70.6848 62.5858 70.3674 61.6439 70.6972 60.8195C70.9077 60.293 71.0131 60.0298 71.04 59.7693C71.0795 59.3866 71.0004 59.001 70.8133 58.6648C70.6859 58.4359 70.4855 58.2355 70.0845 57.8345C69.7072 57.4573 69.5186 57.2687 69.3032 57.1448C68.9867 56.9628 68.624 56.8772 68.2595 56.8984C68.0114 56.9129 67.7584 56.9972 67.2522 57.1659L66.5393 57.4036C65.7451 57.6683 64.8823 57.2681 64.5714 56.4909C64.3551 55.9502 64.247 55.6798 64.0817 55.4689C63.8399 55.1601 63.5073 54.9349 63.1308 54.8251Z" stroke="white" stroke-width="4" stroke-linecap="round" stroke-linejoin="round"/>
</svg>
